<svg width="185" height="91" viewBox="0 0 185 91" fill="none" xmlns="http://www.w3.org/2000/svg">
<path d="M32.5449 41.0821L34.4808 39.5002L32.2594 36.7817L30.4169 39.77L32.5449 41.0821ZM48.4983 60.6059L46.5625 62.1878L49.2286 65.4506L50.8145 61.5469L48.4983 60.6059ZM62.677 25.7061L64.6493 24.1699L61.9899 20.7554L60.3608 24.7651L62.677 25.7061ZM89.8599 60.6059L87.8876 62.1421L89.9652 64.8096L91.9067 62.0414L89.8599 60.6059ZM128.859 5L130.73 3.34108L128.63 0.973586L126.813 3.56448L128.859 5ZM185 68.2939L179.209 40.0132L157.613 59.1687L185 68.2939ZM5.12802 90.3121L34.6729 42.3942L30.4169 39.77L0.871984 87.6879L5.12802 90.3121ZM30.609 42.664L46.5625 62.1878L50.4342 59.024L34.4808 39.5002L30.609 42.664ZM50.8145 61.5469L64.9932 26.6471L60.3608 24.7651L46.1822 59.6649L50.8145 61.5469ZM60.7047 27.2423L87.8876 62.1421L91.8322 59.0697L64.6493 24.1699L60.7047 27.2423ZM91.9067 62.0414L130.906 6.43552L126.813 3.56448L87.8131 59.1704L91.9067 62.0414ZM126.989 6.65892L168.199 53.1202L171.94 49.8024L130.73 3.34108L126.989 6.65892Z" fill="#507FD9"/>
</svg>
