<svg width="203" height="104" viewBox="0 0 203 104" fill="none" xmlns="http://www.w3.org/2000/svg">
<path d="M48.0738 45.6733L49.6276 43.7148L47.6981 42.184L46.1387 44.0905L48.0738 45.6733ZM72.3771 64.9551L70.8233 66.9136L72.7217 68.4198L74.2863 66.5692L72.3771 64.9551ZM103.261 28.424L104.978 26.6067L103.058 24.7926L101.352 26.81L103.261 28.424ZM147.307 70.0324L145.591 71.8498L147.57 73.7193L149.264 71.5885L147.307 70.0324ZM203 0L176.142 10.5832L198.737 28.5509L203 0ZM3.93509 103.583L50.0089 47.2562L46.1387 44.0905L0.0649107 100.417L3.93509 103.583ZM46.52 47.6318L70.8233 66.9136L73.931 62.9966L49.6276 43.7148L46.52 47.6318ZM74.2863 66.5692L105.171 30.038L101.352 26.81L70.468 63.3411L74.2863 66.5692ZM101.545 30.2413L145.591 71.8498L149.024 68.2151L104.978 26.6067L101.545 30.2413ZM149.264 71.5885L190.952 19.1664L187.039 16.0543L145.351 68.4764L149.264 71.5885Z" fill="#FF0000"/>
</svg>
